# xmcd CD database file
#
# Track frame offsets:
#	150
#	14068
#	29303
#
# Disc length: 765 seconds
#
# Revision: 0
# Processed by: cddbd v1.5.1PL2 Copyright (c) Steve Scherf et al.
# Submitted via: CDex 1.51
#
DISCID=1e02fb03
DTITLE=lostage - routine
DYEAR=1900
DGENRE=ロック (一般)
TTITLE0=routine
TTITLE1=下がった体温
TTITLE2=2:50
EXTD=
EXTT0=
EXTT1=
EXTT2=
PLAYORDER=
